<svg width="503" height="482" viewBox="0 0 503 482" fill="none" xmlns="http://www.w3.org/2000/svg">
<path d="M0 5.00001C0 2.23859 2.23858 0 5 0H498C500.761 0 503 2.23858 503 5V477C503 479.761 500.761 482 498 482H5.00001C2.23859 482 0 479.761 0 477V5.00001Z" fill="#EFF3FD"/>
<path d="M278.333 206.5H224.667C220.432 206.5 217 209.932 217 214.167V267.833C217 272.068 220.432 275.5 224.667 275.5H278.333C282.568 275.5 286 272.068 286 267.833V214.167C286 209.932 282.568 206.5 278.333 206.5Z" stroke="#212121" stroke-width="3" stroke-linecap="round" stroke-linejoin="round"/>
<path d="M238.083 233.333C241.259 233.333 243.833 230.759 243.833 227.583C243.833 224.408 241.259 221.833 238.083 221.833C234.908 221.833 232.333 224.408 232.333 227.583C232.333 230.759 234.908 233.333 238.083 233.333Z" stroke="#212121" stroke-width="3" stroke-linecap="round" stroke-linejoin="round"/>
<path d="M286 252.5L266.833 233.333L224.667 275.5" stroke="#212121" stroke-width="3" stroke-linecap="round" stroke-linejoin="round"/>
</svg>
