<svg width="175" height="145" viewBox="0 0 175 145" fill="none" xmlns="http://www.w3.org/2000/svg">
<path d="M0.0909424 5.69999C0.0909424 2.93857 2.32952 0.699997 5.09094 0.699997H169.827C172.589 0.699997 174.827 2.93857 174.827 5.7V139.945C174.827 142.707 172.589 144.945 169.827 144.945H5.09094C2.32952 144.945 0.0909424 142.707 0.0909424 139.945V5.69999Z" fill="#EFF3FD"/>
<path d="M114.292 38.3227H60.6258C56.3916 38.3227 52.9591 41.7552 52.9591 45.9894V99.6561C52.9591 103.89 56.3916 107.323 60.6258 107.323H114.292C118.527 107.323 121.959 103.89 121.959 99.6561V45.9894C121.959 41.7552 118.527 38.3227 114.292 38.3227Z" stroke="#212121" stroke-width="3" stroke-linecap="round" stroke-linejoin="round"/>
<path d="M74.0424 65.156C77.2181 65.156 79.7924 62.5817 79.7924 59.4061C79.7924 56.2304 77.2181 53.6561 74.0424 53.6561C70.8668 53.6561 68.2924 56.2304 68.2924 59.4061C68.2924 62.5817 70.8668 65.156 74.0424 65.156Z" stroke="#212121" stroke-width="3" stroke-linecap="round" stroke-linejoin="round"/>
<path d="M121.959 84.3227L102.792 65.1561L60.6258 107.323" stroke="#212121" stroke-width="3" stroke-linecap="round" stroke-linejoin="round"/>
</svg>
