<svg width="200" height="144" viewBox="0 0 200 144" fill="none" xmlns="http://www.w3.org/2000/svg">
<path d="M113.936 127.393C112.553 125.664 110.681 124.399 108.327 123.925C106.275 123.512 104.165 123.583 102.078 123.597L75.6991 123.779C73.4398 123.794 71.2737 125.542 71.3787 127.637C71.4828 129.714 73.2774 131.512 75.6991 131.495C83.4264 131.442 91.1537 131.389 98.881 131.335C100.703 131.323 102.526 131.293 104.347 131.299C104.757 131.3 105.164 131.319 105.573 131.323C105.672 131.324 105.743 131.324 105.794 131.322C105.806 131.325 105.817 131.328 105.833 131.332C106.047 131.385 106.265 131.421 106.48 131.47C106.405 131.472 106.619 131.592 106.727 131.632C106.741 131.658 106.773 131.704 106.826 131.776C106.899 131.899 107.116 132.272 107.125 132.26C107.452 132.998 107.721 133.755 107.932 134.525C108.434 136.225 108.544 136.58 108.617 138.174C108.708 140.188 110.538 142.128 112.937 142.032C115.199 141.942 117.355 140.334 117.257 138.174C117.092 134.534 116.377 130.446 113.936 127.393Z" fill="#E6E6E6"/>
<path d="M77.2493 136.1C76.7538 133.418 76.2678 130.735 75.7627 128.056C75.2502 125.337 74.2035 122.848 71.8344 121.063C71.2014 120.587 70.5451 120.141 69.886 119.698C69.6542 119.542 69.4228 119.386 69.1938 119.226C69.1801 119.217 69.1714 119.211 69.1595 119.202C69.1343 119.183 69.1041 119.16 69.0635 119.129C68.0761 118.383 67.122 117.604 66.2132 116.775C65.4062 116.039 64.6344 115.272 63.8978 114.474C63.7138 114.274 63.5321 114.073 63.3528 113.87C63.3219 113.835 63.1558 113.643 63.0464 113.518C62.9446 113.393 62.7585 113.167 62.7273 113.127C62.5178 112.863 62.312 112.596 62.11 112.326C60.7339 110.485 59.5424 108.539 58.5492 106.511C58.4507 106.31 58.3545 106.108 58.2607 105.904C58.2355 105.842 58.2029 105.762 58.1597 105.656C57.9595 105.165 57.7598 104.674 57.5768 104.176C57.188 103.12 56.8537 102.048 56.5739 100.961C56.4356 100.423 56.3111 99.8838 56.2004 99.3413C56.1433 99.0623 56.0899 98.7828 56.0402 98.5027C56.032 98.4562 55.9835 98.154 55.9549 97.9832C55.9338 97.8116 55.8945 97.5078 55.8893 97.4608C55.8576 97.1785 55.8295 96.8958 55.805 96.6129C55.7498 95.9763 55.7124 95.3386 55.6929 94.6999C55.6597 93.5647 55.6825 92.4296 55.7612 91.2946C55.8061 90.6569 55.8699 90.0209 55.9485 89.386C55.9532 89.347 55.9569 89.316 55.9603 89.288C55.9651 89.2597 55.9706 89.2274 55.9772 89.1874C56.0354 88.8365 56.0965 88.4861 56.165 88.1369C56.4241 86.8107 56.7611 85.4977 57.1747 84.2031C57.3705 83.5909 57.5831 82.9836 57.8127 82.3813C57.915 82.1139 58.0206 81.8475 58.1294 81.5822C58.1223 81.5993 58.4486 80.855 58.4529 80.83C59.7477 78.0981 61.8654 75.6077 61.8683 72.5044C61.8703 70.4033 59.8798 68.3907 57.5479 68.4878C56.3853 68.5268 55.2851 68.9674 54.4791 69.7167C53.6732 70.466 53.2245 71.4655 53.2275 72.5044C53.2275 72.5516 53.2272 72.5919 53.2271 72.6309C53.2054 72.6964 53.1872 72.7509 53.1708 72.7992C52.9183 73.2892 52.609 73.7548 52.3319 74.2326C51.573 75.5404 50.9252 76.8911 50.3099 78.2616C49.3025 80.4934 48.5314 82.8046 48.0067 85.1649C46.8663 90.3363 46.7777 95.6489 47.7454 100.848C49.4205 109.966 54.9447 118.695 62.6246 124.561C63.2911 125.071 63.9738 125.563 64.663 126.045C64.9482 126.244 65.2357 126.44 65.5247 126.634C65.6613 126.726 66.2272 127.125 65.9783 126.932C66.5136 127.34 66.7389 127.545 66.8764 127.846C66.8963 127.915 66.9235 128.009 66.9603 128.138C67.0572 128.476 67.1492 128.815 67.2257 129.158C67.8942 132.161 68.3588 135.213 68.9172 138.235C69.301 140.312 72.1634 141.663 74.2318 141.041C76.6394 140.316 77.6606 138.325 77.2493 136.1Z" fill="#E6E6E6"/>
<path d="M114.373 143.887C112.558 143.891 110.816 143.253 109.528 142.111C108.24 140.97 107.512 139.419 107.503 137.799V133.397C102.343 133.913 84.6743 133.794 79.6096 133.067V137.623C79.596 139.242 78.8662 140.79 77.5794 141.931C76.2926 143.071 74.5531 143.711 72.7401 143.711C70.927 143.711 69.1875 143.071 67.9007 141.931C66.6139 140.79 65.8842 139.242 65.8706 137.623V128.678C59.0108 125.275 53.2922 120.299 49.3049 114.263C45.3177 108.228 43.2062 101.351 43.1885 94.3436C43.1885 82.3278 49.2865 71.1187 59.9189 63.5907C66.832 58.6794 75.2313 55.7258 84.0382 55.1091C85.2336 55.0254 86.4363 54.983 87.613 54.983C91.7585 54.983 110.462 55.5549 115.155 56.7606L125.855 47.2787C126.013 47.1374 126.214 47.0412 126.432 47.0023C126.651 46.9633 126.878 46.9834 127.084 47.0601C127.292 47.1338 127.469 47.2618 127.594 47.4274C127.718 47.5929 127.784 47.7882 127.782 47.9877V49.4952L129.866 47.6525C130.023 47.511 130.223 47.4146 130.442 47.3756C130.661 47.3366 130.887 47.3567 131.093 47.4335C131.301 47.5071 131.479 47.6352 131.603 47.8008C131.728 47.9664 131.794 48.1618 131.792 48.3614V65.2082C137.161 69.5309 141.254 74.9697 143.706 81.0425C146.159 87.1153 146.896 93.6347 145.853 100.023C144.81 106.411 142.018 112.471 137.725 117.665C133.432 122.859 127.77 127.027 121.242 129.8V137.799C121.233 139.419 120.505 140.97 119.217 142.111C117.929 143.253 116.187 143.891 114.373 143.887V143.887ZM108.043 132.851V137.799C108.057 139.29 108.73 140.715 109.915 141.766C111.101 142.816 112.703 143.405 114.372 143.405C116.042 143.405 117.644 142.816 118.83 141.766C120.015 140.715 120.688 139.29 120.702 137.799V129.496L120.856 129.43C128.181 126.326 134.4 121.47 138.821 115.401C144.455 107.656 146.798 98.3655 145.426 89.2115C144.054 80.0575 139.058 71.6445 131.342 65.4953L131.252 65.4233V48.3614C131.254 48.2577 131.22 48.156 131.155 48.07C131.091 47.9839 130.998 47.9177 130.89 47.8802C130.782 47.8391 130.663 47.828 130.548 47.8483C130.433 47.8687 130.328 47.9196 130.246 47.9942L127.242 50.6517V47.9877C127.244 47.884 127.21 47.7823 127.145 47.6962C127.081 47.6102 126.988 47.544 126.88 47.5064C126.772 47.4654 126.653 47.4545 126.538 47.475C126.423 47.4955 126.317 47.5465 126.236 47.6214L115.306 57.3062L115.151 57.2628C110.788 56.0434 91.79 55.4653 87.613 55.4653C86.4503 55.4653 85.2618 55.5072 84.0806 55.59C75.3808 56.1991 67.0835 59.1168 60.2545 63.9685C49.752 71.4046 43.7285 82.4759 43.7285 94.3436C43.7464 101.289 45.8466 108.104 49.8108 114.08C53.775 120.055 59.4587 124.974 66.2713 128.326L66.4106 128.394V137.623C66.4245 139.113 67.0975 140.539 68.283 141.589C69.4685 142.639 71.0705 143.228 72.7401 143.228C74.4096 143.228 76.0116 142.639 77.1971 141.589C78.3826 140.539 79.0556 139.113 79.0695 137.623V132.49L79.3894 132.543C83.9409 133.308 103.106 133.429 107.738 132.886L108.043 132.851Z" fill="#3F3D56"/>
<path d="M77.7657 28.7237L47.863 36.7487C46.9119 37.0049 46.1136 37.5879 45.6435 38.3694C45.1734 39.151 45.07 40.0672 45.3559 40.9168C45.6418 41.7665 46.2936 42.48 47.1683 42.9007C48.0429 43.3214 49.0688 43.4148 50.0206 43.1605L76.1886 36.1362L76.7368 35.9891C76.8478 33.4665 77.6141 31.0014 78.9753 28.7888C78.8045 28.7202 78.6219 28.6778 78.4353 28.6634C78.2098 28.6439 77.9822 28.6644 77.7657 28.7237Z" fill="#F27D28"/>
<path d="M49.5033 44.8712C49.1064 44.8703 48.7198 44.7581 48.3982 44.5503C48.0765 44.3426 47.8362 44.0498 47.711 43.7134L45.8411 38.6747C45.763 38.4642 45.7321 38.2421 45.7501 38.021C45.7681 37.7999 45.8348 37.5842 45.9462 37.3861C46.0576 37.188 46.2116 37.0114 46.3994 36.8665C46.5873 36.7216 46.8052 36.6111 47.0409 36.5414L71.3786 29.3387C71.6142 29.2689 71.8629 29.2413 72.1104 29.2574C72.358 29.2735 72.5996 29.3329 72.8214 29.4324C73.0432 29.5318 73.2409 29.6694 73.4033 29.8371C73.5656 30.0047 73.6893 30.1994 73.7674 30.4098L75.6373 35.4485C75.7928 35.863 75.7617 36.3152 75.5503 36.7094C75.339 37.1037 74.9641 37.409 74.505 37.5607C74.4825 37.5682 74.4598 37.5753 74.4369 37.582L50.0998 44.7845C49.9075 44.8418 49.7061 44.871 49.5033 44.8712Z" fill="#2F2E41"/>
<path d="M95.0824 19.7749C90.1704 19.7766 85.4518 21.4851 81.9255 24.5387C78.3991 27.5924 76.3417 31.7516 76.1887 36.1359C76.1833 36.3071 76.1807 36.4808 76.1807 36.6544C76.1807 39.9928 77.2892 43.2563 79.3662 46.0321C81.4431 48.8079 84.3952 50.9714 87.849 52.249C91.3029 53.5265 95.1034 53.8608 98.77 53.2095C102.437 52.5582 105.805 50.9506 108.448 48.59C111.091 46.2293 112.892 43.2217 113.621 39.9474C114.35 36.6731 113.976 33.2792 112.545 30.1949C111.115 27.1106 108.692 24.4743 105.584 22.6196C102.475 20.7649 98.8208 19.7749 95.0824 19.7749V19.7749ZM95.0824 53.0516C90.2141 53.047 85.5467 51.318 82.1043 48.2439C78.6619 45.1699 76.7258 41.0018 76.7207 36.6544C76.7207 36.4301 76.7261 36.2083 76.7369 35.9888C76.8831 32.7769 78.0834 29.6741 80.1885 27.0665C82.2935 24.4588 85.2105 22.4612 88.5767 21.3221C91.9428 20.183 95.6097 19.9526 99.1213 20.6596C102.633 21.3667 105.834 22.9799 108.327 25.2987C110.821 27.6175 112.496 30.5396 113.144 33.7017C113.792 36.8637 113.385 40.1262 111.974 43.0835C110.563 46.0407 108.209 48.5623 105.206 50.3345C102.203 52.1068 98.6822 53.0517 95.0824 53.0516V53.0516Z" fill="#3F3D56"/>
<path d="M111.013 36.6542C111.013 40.4274 109.335 44.0461 106.347 46.7142C103.359 49.3822 99.3072 50.8812 95.0819 50.8812C90.8566 50.8812 86.8043 49.3822 83.8166 46.7142C80.8289 44.0461 79.1504 40.4274 79.1504 36.6542C79.1504 36.2033 79.1747 35.7596 79.2205 35.3207C79.6045 31.6791 81.5442 28.3095 84.637 25.9115C87.7298 23.5135 91.738 22.2713 95.8293 22.4429C99.9207 22.6145 103.781 24.1867 106.608 26.833C109.436 29.4794 111.013 32.9965 111.013 36.6542V36.6542Z" fill="#E6E6E6"/>
<path d="M99.8271 37.5996C99.4409 37.1461 98.9329 36.787 98.3501 36.5554C97.6313 36.2849 96.8889 36.0672 96.1304 35.9044V32.0317C97.2963 32.1887 98.3897 32.6339 99.287 33.317L100.167 31.6411C99.661 31.2383 99.0798 30.9176 98.4499 30.6934C97.7518 30.441 97.0189 30.2731 96.2709 30.1943V28.2314H94.2322V30.2136C93.445 30.2925 92.6856 30.5202 92.0045 30.8815C91.3893 31.2067 90.8713 31.6601 90.495 32.2029C90.1358 32.7327 89.9497 33.3416 89.9577 33.9608C89.9226 34.6319 90.1403 35.2941 90.5761 35.8417C90.9771 36.3158 91.5068 36.6909 92.1151 36.9316C92.8454 37.2101 93.6006 37.4336 94.3726 37.5996V41.3106C92.9968 41.218 91.6859 40.7509 90.6165 39.9723L89.7363 41.6506C90.3342 42.0921 91.0142 42.4365 91.7453 42.6682C92.5464 42.9242 93.3833 43.08 94.2322 43.1312V45.0772H96.2709V43.095C97.4032 42.9845 98.4651 42.5497 99.2978 41.8556C99.6645 41.5415 99.9542 41.1629 100.149 40.7437C100.343 40.3244 100.438 39.8737 100.427 39.4201C100.46 38.7705 100.249 38.1294 99.8271 37.5996V37.5996ZM94.3726 35.4944C93.876 35.36 93.4143 35.1386 93.0143 34.8434C92.8559 34.7175 92.7306 34.5618 92.6475 34.3875C92.5644 34.2132 92.5256 34.0247 92.5338 33.8354C92.519 33.4059 92.6958 32.9888 93.0251 32.6756C93.3904 32.347 93.8615 32.1286 94.3726 32.051V35.4944ZM97.4104 40.6258C97.0659 40.9413 96.6174 41.15 96.1304 41.2214V38.0288C96.5959 38.1403 97.0313 38.3347 97.4104 38.6003C97.5541 38.7099 97.6683 38.847 97.7445 39.0015C97.8207 39.156 97.857 39.3238 97.8505 39.4925C97.8693 39.9063 97.7121 40.3112 97.4104 40.6258V40.6258Z" fill="#F27D28"/>
<path d="M50.3716 65.2928C49.9542 65.2922 49.5487 65.1686 49.2179 64.9412C48.8871 64.7138 48.6496 64.3953 48.5422 64.0351L47.5242 60.5941C47.3967 60.1616 47.4666 59.7016 47.7185 59.315C47.9703 58.9285 48.3836 58.6469 48.8676 58.5321L80.9845 50.9532C81.4692 50.8403 81.9842 50.9034 82.4169 51.1287C82.8496 51.354 83.1648 51.7231 83.2935 52.1554L84.1559 55.0707L83.9944 55.0819C75.7574 55.6538 67.8762 58.3207 61.2832 62.7671L61.2364 62.7874L50.8512 65.2372C50.6947 65.2741 50.5335 65.2928 50.3716 65.2928V65.2928Z" fill="#2F2E41"/>
<path d="M45.0524 82.2895C41.2849 81.7924 37.6817 80.5758 34.4884 78.7225C32.9064 77.8051 31.4418 76.7354 30.121 75.5327C28.8174 74.3453 27.5703 72.9957 26.9245 71.4143C26.3033 69.9513 26.3353 68.331 27.014 66.8884C27.6834 65.4546 28.9622 64.3165 30.5699 63.7234C32.1872 63.1474 34.1413 63.0858 35.7153 63.7166C36.4654 64.0102 37.1144 64.4767 37.5959 65.0683C37.8196 65.3411 37.9853 65.6483 38.0847 65.9746C38.1769 66.2702 38.1853 66.5817 38.1091 66.881C38.0168 67.1798 37.854 67.4575 37.6317 67.6955C37.4094 67.9335 37.1326 68.1263 36.82 68.261C36.132 68.5762 35.3866 68.7792 34.6187 68.8606C33.8464 68.9546 32.737 69.0402 32.1161 68.4866C31.9883 68.377 31.8878 68.2447 31.8211 68.0981C31.7745 67.9859 31.7585 67.8654 31.7746 67.7465C31.7655 67.7989 31.812 67.6326 31.8094 67.6393C31.7996 67.6638 31.757 67.7238 31.8175 67.6317C31.8364 67.6014 31.8574 67.5721 31.8804 67.5442C31.8599 67.5679 31.8148 67.6074 31.8953 67.5396C31.9618 67.4746 32.0473 67.4274 32.1422 67.4035C32.1796 67.3937 32.2175 67.386 32.255 67.3769C32.3502 67.3536 32.16 67.3781 32.2575 67.3753C32.2951 67.3743 32.3331 67.3751 32.3706 67.3736C32.4662 67.3698 32.2763 67.3503 32.3679 67.3709C32.4035 67.3789 32.4387 67.3867 32.4738 67.3965C32.5499 67.4179 32.4198 67.3466 32.4714 67.4C32.5319 67.4626 32.4079 67.3392 32.4767 67.3997C32.5109 67.4297 32.5431 67.4615 32.5733 67.4948C32.6925 67.5999 32.8533 67.6589 33.0208 67.6589C33.1884 67.6589 33.3492 67.5999 33.4684 67.4948C33.5836 67.3872 33.6478 67.244 33.6478 67.0951C33.6478 66.9462 33.5836 66.8031 33.4684 66.6954C32.8443 66.0045 31.6114 66.1752 30.98 66.7592C30.1748 67.5039 30.4937 68.6842 31.2769 69.334C32.1636 70.0697 33.4194 70.1208 34.56 69.9974C35.5239 69.915 36.4633 69.6779 37.3329 69.2976C38.1971 68.9185 38.8729 68.2665 39.2296 67.4679C39.3906 67.0417 39.4485 66.5898 39.3993 66.1421C39.3501 65.6945 39.195 65.2612 38.9443 64.8711C37.9373 63.1805 35.8521 62.3137 33.7911 62.1636C32.7299 62.0893 31.6629 62.2038 30.6516 62.5002C29.6403 62.7967 28.7049 63.2693 27.8995 63.8908C26.3471 65.1388 25.3912 66.8718 25.2294 68.7315C25.0495 70.6597 25.8872 72.5322 27.1086 74.0882C28.3872 75.6692 29.913 77.0784 31.6394 78.2727C35.0146 80.679 38.9736 82.3464 43.1997 83.1414C43.7024 83.2341 44.2078 83.3135 44.7159 83.3795C44.8775 83.4145 45.048 83.3932 45.1927 83.3198C45.3373 83.2465 45.4453 83.1267 45.4945 82.9848C45.5379 82.8402 45.5158 82.6863 45.4331 82.5562C45.3503 82.426 45.2136 82.3302 45.0524 82.2895L45.0524 82.2895Z" fill="#3F3D56"/>
<path d="M105.372 57.7232C99.8518 57.6537 94.3493 57.7788 88.8642 58.0985C86.9893 58.2079 85.3672 58.7996 85.3672 59.7942C85.3672 60.6258 86.9764 61.6 88.8642 61.4899C94.3465 61.1702 99.849 61.0451 105.372 61.1146C109.874 61.1713 109.871 57.7799 105.372 57.7232Z" fill="#CCCCCC"/>
<path d="M97.2134 60.947C96.6169 60.947 82.6035 60.9271 82.6035 59.1985C82.6035 57.4701 96.6169 57.4502 97.2134 57.4502C97.81 57.4502 111.823 57.4701 111.823 59.1985C111.823 60.9271 97.81 60.947 97.2134 60.947ZM83.1515 59.1985C83.535 59.7226 88.686 60.4647 97.2134 60.4647C105.741 60.4647 110.892 59.7226 111.275 59.1985C110.892 58.6746 105.741 57.9325 97.2134 57.9325C88.686 57.9325 83.535 58.6746 83.1515 59.1986V59.1985Z" fill="#3F3D56"/>
<path d="M141.674 106.389C144.776 106.312 148.637 106.215 151.611 104.275C152.497 103.674 153.225 102.907 153.744 102.028C154.262 101.149 154.559 100.179 154.614 99.1865C154.675 97.6542 154.055 96.3166 152.869 95.4214C151.315 94.2491 149.047 93.9742 146.602 94.6157L149.135 78.0864L147.276 77.8589L144.298 97.2912L145.851 96.655C147.651 95.9177 150.122 95.5425 151.657 96.7012C152.034 97.0042 152.328 97.3807 152.516 97.8015C152.703 98.2223 152.78 98.6761 152.739 99.1276C152.693 99.8662 152.47 100.587 152.085 101.242C151.699 101.897 151.16 102.47 150.504 102.922C148.19 104.432 145.112 104.626 141.622 104.713L141.674 106.389Z" fill="#3F3D56"/>
<path d="M136.533 79.5122H126.426V81.1881H136.533V79.5122Z" fill="#3F3D56"/>
<path d="M54.9451 73.0005C54.4952 72.9992 54.0605 72.8549 53.7189 72.5934C53.3773 72.332 53.1511 71.9704 53.0809 71.5736L52.4639 68.0575C52.3869 67.6153 52.5094 67.1638 52.8046 66.8022C53.0999 66.4405 53.5437 66.1983 54.0387 66.1285L86.8553 61.5367C87.3505 61.4679 87.856 61.5773 88.2609 61.841C88.6658 62.1046 88.9371 62.5009 89.0152 62.943L89.6321 66.4592C89.7092 66.9014 89.5867 67.3529 89.2915 67.7145C88.9963 68.0762 88.5524 68.3184 88.0574 68.3882L55.2409 72.9799C55.143 72.9936 55.0442 73.0005 54.9451 73.0005Z" fill="#2F2E41"/>
<path d="M41.3641 31.795C48.9697 31.795 55.1353 26.2891 55.1353 19.4971C55.1353 12.7052 48.9697 7.19922 41.3641 7.19922C33.7584 7.19922 27.5928 12.7052 27.5928 19.4971C27.5928 26.2891 33.7584 31.795 41.3641 31.795Z" fill="#F27D28"/>
<path d="M49.1615 22.679C49.6017 22.5416 50.0037 22.3215 50.3407 22.0337C50.5636 21.8285 50.7337 21.5823 50.8388 21.3123C50.944 21.0422 50.9818 20.7549 50.9495 20.4705C50.9308 20.2677 50.8598 20.0716 50.7422 19.8974C50.6245 19.7232 50.4633 19.5757 50.2712 19.4663C49.7728 19.1926 49.1143 19.203 48.4494 19.4782L48.3726 14.6777L47.8327 14.6846L47.9229 20.3281L48.3339 20.0873C48.8106 19.8086 49.4955 19.6065 49.9883 19.8772C50.1101 19.9488 50.2119 20.0446 50.2855 20.1571C50.3592 20.2696 50.4028 20.3957 50.413 20.5257C50.4357 20.7376 50.407 20.9514 50.3289 21.1525C50.2508 21.3537 50.1251 21.5374 49.9604 21.6913C49.375 22.21 48.5085 22.3838 47.5195 22.5427L47.6152 23.0173C48.1409 22.946 48.6585 22.8328 49.1615 22.679V22.679Z" fill="#2F2E41"/>
<path d="M53.9334 14.3406L51.0576 14.7295L51.1385 15.2063L54.0143 14.8173L53.9334 14.3406Z" fill="#2F2E41"/>
<path d="M44.8553 15.5681L41.9795 15.957L42.0603 16.4338L44.9362 16.0449L44.8553 15.5681Z" fill="#2F2E41"/>
<path d="M50.4647 72.7855C49.9694 72.7846 49.4862 72.649 49.0794 72.3968C48.6725 72.1446 48.3613 71.7877 48.1872 71.3737L38.6923 48.6662C37.5317 45.8813 37.6557 42.799 39.0368 40.0955C40.418 37.3921 42.9437 35.2883 46.0597 34.2458L53.7801 31.6714C54.0787 31.5711 54.3965 31.5246 54.7152 31.5345C55.0339 31.5444 55.3474 31.6105 55.6374 31.7289C55.9267 31.8444 56.1874 32.0101 56.4041 32.2166C56.6209 32.423 56.7894 32.6659 56.8999 32.9312L74.4884 62.5869C74.6025 62.8544 74.6564 63.1393 74.6468 63.4254C74.6372 63.7114 74.5643 63.993 74.4324 64.2538C74.3005 64.5146 74.1121 64.7496 73.8781 64.9452C73.6441 65.1407 73.3691 65.293 73.0689 65.3933L51.314 72.6476C51.0424 72.7386 50.7547 72.7853 50.4647 72.7855Z" fill="#2F2E41"/>
<path d="M51.4375 32.4526L68.8889 53.2929L57.0803 32.6713C56.9828 32.4307 56.8331 32.2096 56.6399 32.0207C56.4467 31.8317 56.2137 31.6786 55.9541 31.5701C55.6946 31.4616 55.4137 31.3998 55.1275 31.3882C54.8412 31.3767 54.5552 31.4156 54.2858 31.5028L51.4375 32.4526Z" fill="#E6E6E6"/>
<path d="M79.0698 48.2794L47.9102 46.487C47.4191 46.4588 46.939 46.3444 46.4973 46.1505C46.0556 45.9565 45.6611 45.6868 45.3362 45.3567C45.0112 45.0266 44.7623 44.6425 44.6036 44.2265C44.4448 43.8105 44.3794 43.3706 44.4111 42.932C44.4427 42.4934 44.5708 42.0646 44.788 41.6702C45.0051 41.2758 45.3072 40.9235 45.6768 40.6333C46.0465 40.3432 46.4766 40.1209 46.9424 39.9791C47.4083 39.8374 47.9009 39.779 48.392 39.8072L79.5516 41.5995C79.7817 41.6127 80.0065 41.6662 80.2133 41.757C80.4202 41.8479 80.605 41.9742 80.7571 42.1288C80.9093 42.2834 81.0259 42.4632 81.1002 42.6581C81.1746 42.8529 81.2052 43.0589 81.1904 43.2643L80.9342 46.816C80.9043 47.2309 80.691 47.6181 80.3414 47.8925C79.9918 48.1669 79.5344 48.3061 79.0698 48.2794Z" fill="#F27D28"/>
<path d="M70.7437 49.4287C70.7026 49.4287 70.6613 49.4275 70.6199 49.4252H70.6199L45.0334 47.9534C44.7857 47.9392 44.5435 47.8815 44.3207 47.7837C44.098 47.6859 43.899 47.5499 43.7351 47.3834C43.5712 47.2169 43.4457 47.0232 43.3656 46.8134C43.2856 46.6036 43.2526 46.3817 43.2686 46.1605L43.7061 40.094C43.7221 39.8728 43.7867 39.6566 43.8962 39.4576C44.0057 39.2587 44.1581 39.081 44.3445 38.9347C44.531 38.7884 44.7479 38.6763 44.9829 38.6048C45.2178 38.5333 45.4663 38.5039 45.714 38.5182L71.3005 39.9898C71.8005 40.0191 72.2671 40.2243 72.598 40.5604C72.9288 40.8965 73.0968 41.336 73.0652 41.7827L72.6277 47.8493C72.6036 48.1744 72.475 48.4863 72.2572 48.7477C72.0395 49.0091 71.7419 49.2088 71.4002 49.3228C71.1902 49.393 70.9678 49.4288 70.7437 49.4287V49.4287Z" fill="#2F2E41"/>
<path d="M41.2065 11.319C43.0181 9.92758 45.506 11.1723 47.5836 10.9544C49.5713 10.7459 51.1408 9.15372 51.5418 7.4622C52.0095 5.48875 50.8625 3.51163 49.1719 2.28122C47.3202 0.933618 44.8644 0.546753 42.5372 0.79607C39.87 1.08182 37.4307 2.19209 35.242 3.53501C33.1293 4.79112 31.1864 6.2613 29.4522 7.91624C27.8992 9.44785 26.5835 11.2735 26.1633 13.3345C25.7815 15.2075 26.0731 17.2831 27.313 18.8698C27.9705 19.683 28.8516 20.3313 29.8712 20.7519C30.9344 21.2181 32.0686 21.5514 33.0986 22.0786C34.6561 22.8756 36.1698 24.5282 35.6819 26.248C35.5773 26.6237 35.3709 26.9707 35.0808 27.2584C34.7323 27.6039 34.1037 27.1473 34.4531 26.8009C35.0668 26.1925 35.0427 25.3811 34.7156 24.6548C34.3267 23.8363 33.638 23.16 32.7624 22.7367C31.6842 22.1862 30.4938 21.8464 29.3887 21.345C28.3309 20.8869 27.4128 20.2074 26.7123 19.3643C25.3897 17.7229 24.9941 15.5868 25.294 13.6106C25.6186 11.4721 26.849 9.52887 28.3914 7.90042C30.0699 6.12821 32.1318 4.62808 34.2381 3.28042C36.4982 1.83437 38.9952 0.61183 41.7583 0.169658C44.1535 -0.213636 46.7497 0.0223438 48.8441 1.18796C50.7992 2.27598 52.2984 4.14759 52.4475 6.23894C52.501 7.1905 52.2696 8.13761 51.7772 8.9828C51.2847 9.82799 50.549 10.5407 49.6456 11.0477C48.7187 11.543 47.641 11.766 46.5646 11.6851C45.4139 11.6193 44.2621 11.3046 43.104 11.392C42.5799 11.4204 42.0805 11.6006 41.6815 11.9052C41.2856 12.2093 40.8139 11.6205 41.2065 11.319V11.319Z" fill="#2F2E41"/>
<path d="M199.678 144H0.320585C0.235475 144 0.153938 143.969 0.0938429 143.916C0.0337484 143.862 0 143.789 0 143.713C0 143.637 0.0337484 143.564 0.0938429 143.51C0.153938 143.456 0.235475 143.426 0.320585 143.426H199.678C199.764 143.426 199.846 143.456 199.906 143.51C199.966 143.564 200 143.637 200 143.713C200 143.789 199.966 143.862 199.906 143.916C199.846 143.97 199.764 144 199.678 144V144Z" fill="#3F3D56"/>
</svg>
