<svg width="200" height="144" viewBox="0 0 200 144" fill="none" xmlns="http://www.w3.org/2000/svg">
<path d="M2.89416 141.704L5.37678 141.704L6.55804 132.167L2.89355 132.168L2.89416 141.704Z" fill="#A0616A"/>
<path d="M29.6495 102.078C29.4854 101.83 29.2689 101.622 29.0151 101.467C28.7613 101.312 28.4765 101.214 28.1807 101.18C27.8849 101.147 27.5853 101.178 27.303 101.273C27.0207 101.367 26.7626 101.522 26.5469 101.726L20.1162 98.4204L20.516 102.144L26.5614 104.712C26.9301 105.05 27.4105 105.242 27.9117 105.251C28.4128 105.26 28.8999 105.086 29.2805 104.761C29.6612 104.436 29.909 103.984 29.977 103.489C30.045 102.994 29.9285 102.492 29.6495 102.078H29.6495Z" fill="#A0616A"/>
<path d="M23.935 103.576C23.8186 103.629 23.6923 103.658 23.5643 103.659C23.4363 103.66 23.3094 103.635 23.1919 103.584L17.0837 100.945C14.9951 100.044 13.3066 98.4169 12.3323 96.368L9.12104 89.6177C8.88405 89.3145 8.7094 88.9678 8.60708 88.5973C8.50475 88.2269 8.47676 87.8399 8.52471 87.4587C8.57266 87.0774 8.69559 86.7093 8.8865 86.3754C9.07741 86.0415 9.33253 85.7484 9.63729 85.5128C9.94205 85.2771 10.2905 85.1036 10.6626 85.0022C11.0347 84.9007 11.4233 84.8733 11.8061 84.9215C12.1889 84.9698 12.5583 85.0926 12.8934 85.2832C13.2285 85.4737 13.5225 85.7281 13.7588 86.0319L19.4034 96.4611L24.6154 100.382C24.7646 100.495 24.8754 100.65 24.9329 100.828C24.9904 101.005 24.9917 101.196 24.9367 101.374L24.4252 103.02C24.3702 103.196 24.2626 103.352 24.1166 103.466C24.0606 103.51 23.9997 103.547 23.935 103.576Z" fill="#CCCCCC"/>
<path d="M8.97981 81.679C11.7268 81.679 13.9538 79.4614 13.9538 76.7258C13.9538 73.9901 11.7268 71.7725 8.97981 71.7725C6.23277 71.7725 4.00586 73.9901 4.00586 76.7258C4.00586 79.4614 6.23277 81.679 8.97981 81.679Z" fill="#A0616A"/>
<path d="M10.9947 141.704L13.4774 141.704L14.6586 132.167L10.9941 132.168L10.9947 141.704Z" fill="#A0616A"/>
<path d="M18.2656 143.999L10.4626 144L10.4625 140.998L15.2507 140.997C16.0503 140.997 16.8171 141.314 17.3825 141.877C17.9479 142.44 18.2656 143.203 18.2656 144L18.2656 143.999Z" fill="#2F2E41"/>
<path d="M10.165 143.999L2.36204 144L2.3619 140.998L7.1501 140.997C7.94968 140.997 8.71652 141.314 9.28193 141.877C9.84734 142.44 10.165 143.203 10.165 144L10.165 143.999Z" fill="#2F2E41"/>
<path d="M2.02648 138.975C1.94093 138.877 1.87725 138.763 1.8397 138.639C1.80216 138.515 1.79161 138.385 1.80878 138.257L6.15565 105.791L16.9554 107.617L18.108 106.928L15.1275 137.733C15.1027 137.941 15.0067 138.134 14.8556 138.279C14.7044 138.425 14.5075 138.514 14.298 138.532L11.0279 138.803C10.8978 138.814 10.767 138.797 10.6442 138.753C10.5214 138.709 10.4095 138.64 10.3161 138.549C10.2226 138.458 10.1499 138.349 10.1026 138.228C10.0554 138.107 10.0348 137.977 10.0423 137.847L10.889 123.177C10.8905 123.152 10.8826 123.127 10.867 123.108C10.8513 123.088 10.8289 123.075 10.8042 123.071C10.7794 123.067 10.7541 123.073 10.733 123.086C10.7119 123.1 10.6967 123.121 10.6901 123.145L6.50151 138.613C6.44913 138.806 6.33462 138.976 6.17561 139.097C6.01661 139.218 5.82195 139.284 5.62164 139.284H2.71214C2.58228 139.284 2.45392 139.257 2.33567 139.203C2.21741 139.15 2.11199 139.072 2.02648 138.975Z" fill="#2F2E41"/>
<path d="M9.50597 108.063C9.38202 107.951 9.22266 107.886 9.05559 107.879C8.88851 107.872 8.72427 107.924 8.5914 108.025L6.43222 109.697C6.31472 109.789 6.17652 109.85 6.02976 109.875C5.88299 109.901 5.73213 109.89 5.59043 109.845C5.44873 109.799 5.32052 109.719 5.21704 109.612C5.11356 109.505 5.03798 109.375 4.99693 109.232C3.93783 105.538 1.53832 96.2407 2.12945 89.6968C2.46452 85.9875 5.68095 83.1684 9.29945 83.405C11.7733 83.5692 13.4008 84.9904 14.1367 87.6289C15.9436 94.107 17.9294 105.99 18.3091 108.306C18.3391 108.486 18.3138 108.671 18.2366 108.836C18.1594 109.001 18.0339 109.139 17.8765 109.232C16.8549 109.843 15.6877 110.17 14.4961 110.179C13.0544 110.179 11.3257 109.679 9.50597 108.063Z" fill="#CCCCCC"/>
<path d="M10.3209 110.367C10.3451 110.072 10.3039 109.775 10.2003 109.497C10.0967 109.219 9.93311 108.967 9.72113 108.759C9.50916 108.551 9.25392 108.391 8.97341 108.292C8.6929 108.193 8.39394 108.156 8.09757 108.184L5.08582 101.631L3.09277 104.807L6.25834 110.543C6.3389 111.035 6.59814 111.481 6.98692 111.796C7.37571 112.111 7.86704 112.274 8.36781 112.252C8.86857 112.23 9.34399 112.027 9.70396 111.679C10.0639 111.332 10.2835 110.865 10.3209 110.367Z" fill="#A0616A"/>
<path d="M4.89495 108.034C4.77045 108.005 4.65362 107.949 4.55205 107.872C4.45048 107.794 4.36644 107.696 4.30541 107.584L1.1342 101.754C0.0496996 99.7605 -0.270865 97.4429 0.232138 95.2319L1.88839 87.9468C1.88989 87.5627 1.96741 87.1826 2.11651 86.8283C2.26562 86.4739 2.48338 86.1524 2.75736 85.8819C3.03134 85.6114 3.35615 85.3974 3.71324 85.2521C4.07033 85.1067 4.45268 85.0328 4.83845 85.0347C5.22422 85.0366 5.60583 85.1142 5.96148 85.263C6.31712 85.4118 6.63982 85.629 6.91114 85.9021C7.18245 86.1752 7.39705 86.4989 7.54267 86.8546C7.68829 87.2104 7.76207 87.5912 7.75981 87.9754L5.73842 99.6508L7.40991 105.939C7.45743 106.119 7.44817 106.31 7.38339 106.485C7.31861 106.66 7.20143 106.811 7.0477 106.917L5.62544 107.898C5.47287 108.003 5.29176 108.059 5.10625 108.059C5.03508 108.059 4.96415 108.051 4.89495 108.034Z" fill="#CCCCCC"/>
<path opacity="0.2" d="M7.3568 92.8994L5.53418 100.563L8.16686 107.017L6.34423 100.765L7.3568 92.8994Z" fill="black"/>
<path d="M6.14116 80.799C5.69871 80.8072 5.25903 80.728 4.8475 80.5659C4.66643 80.4964 4.47847 80.4393 4.29774 80.3698C2.70159 79.7557 1.65014 78.0628 1.61248 76.3592C1.57483 74.6556 2.46075 73.0021 3.77627 71.9124C5.09179 70.8227 6.79572 70.2632 8.50193 70.1338C10.3398 69.9945 12.4093 70.4586 13.4362 71.9828C13.7096 72.3885 13.9008 72.8808 13.7388 73.3706C13.6903 73.5185 13.6036 73.651 13.4875 73.755C13.0289 74.1614 12.5717 73.8558 12.1041 73.8288C11.4615 73.7917 10.8843 74.3097 10.6769 74.9166C10.4694 75.5234 10.5607 76.1915 10.7282 76.8104C10.8558 77.1829 10.9363 77.5697 10.9677 77.962C10.9812 78.1587 10.9441 78.3556 10.8598 78.534C10.7755 78.7124 10.6468 78.8664 10.486 78.9814C10.0844 79.2231 9.55709 79.0832 9.15528 78.8419C8.75348 78.6005 8.40631 78.265 7.97229 78.0874C7.53828 77.9098 6.95518 77.9492 6.70256 78.343C6.62228 78.4863 6.56795 78.6425 6.54204 78.8045C6.31557 79.832 6.36762 79.7715 6.14116 80.799L6.14116 80.799Z" fill="#2F2E41"/>
<path d="M153.371 46.4814H30.4447C29.9764 46.4818 29.5275 46.6672 29.1964 46.997C28.8653 47.3267 28.6791 47.7737 28.6787 48.24V131.192C28.6791 131.658 28.8653 132.105 29.1964 132.435C29.5275 132.765 29.9764 132.95 30.4447 132.951H153.371C153.626 132.951 153.878 132.895 154.11 132.789C154.342 132.682 154.548 132.527 154.713 132.334C154.727 132.318 154.74 132.302 154.752 132.285C154.857 132.157 154.942 132.013 155.005 131.86C155.094 131.648 155.139 131.421 155.138 131.192V79.5537H154.634V131.192C154.634 131.437 154.562 131.677 154.426 131.882C154.304 132.062 154.14 132.209 153.948 132.309C153.769 132.401 153.571 132.449 153.371 132.449H30.4447C30.1102 132.448 29.7895 132.316 29.5529 132.08C29.3164 131.845 29.1833 131.525 29.1829 131.192V48.24C29.1833 47.9069 29.3164 47.5876 29.5529 47.352C29.7895 47.1165 30.1102 46.984 30.4447 46.9836H153.371C153.705 46.9836 154.026 47.1159 154.263 47.3515C154.5 47.587 154.634 47.9066 154.634 48.24V59.3865H155.138V48.24C155.138 47.7734 154.951 47.3261 154.62 46.9964C154.288 46.6667 153.839 46.4814 153.371 46.4814Z" fill="#3F3D56"/>
<path d="M154.884 53.5308H28.9297V54.0335H154.884V53.5308Z" fill="#3F3D56"/>
<path d="M33.2215 51.761C34.0579 51.761 34.736 51.0858 34.736 50.2528C34.736 49.4199 34.0579 48.7446 33.2215 48.7446C32.3851 48.7446 31.707 49.4199 31.707 50.2528C31.707 51.0858 32.3851 51.761 33.2215 51.761Z" fill="#CCCCCC"/>
<path d="M37.575 51.761C38.4115 51.761 39.0895 51.0858 39.0895 50.2528C39.0895 49.4199 38.4115 48.7446 37.575 48.7446C36.7386 48.7446 36.0605 49.4199 36.0605 50.2528C36.0605 51.0858 36.7386 51.761 37.575 51.761Z" fill="#CCCCCC"/>
<path d="M41.9295 51.761C42.766 51.761 43.444 51.0858 43.444 50.2528C43.444 49.4199 42.766 48.7446 41.9295 48.7446C41.0931 48.7446 40.415 49.4199 40.415 50.2528C40.415 51.0858 41.0931 51.761 41.9295 51.761Z" fill="#CCCCCC"/>
<path d="M72.3497 122.783C71.8284 122.781 71.3159 122.649 70.8586 122.4C70.4013 122.15 70.0137 121.791 69.7309 121.355C69.4481 120.919 69.2789 120.419 69.2388 119.902C69.1987 119.384 69.2888 118.865 69.5011 118.39L73.1091 110.374C70.2676 107.871 67.9936 104.794 66.4383 101.349C64.8831 97.9028 64.0822 94.1668 64.0889 90.389C64.0889 75.6296 76.1467 63.6216 90.9679 63.6216C105.789 63.6216 117.847 75.6296 117.847 90.389C117.847 105.148 105.789 117.156 90.9679 117.156C88.3752 117.154 85.7966 116.776 83.3133 116.034L74.1051 122.242C73.5877 122.593 72.9761 122.782 72.3497 122.783ZM90.9679 67.3566C86.1712 67.3538 81.4924 68.8372 77.5801 71.6011C73.6678 74.3649 70.7159 78.2724 69.1335 82.7819C67.5511 87.2913 67.4166 92.1792 68.7487 96.7682C70.0808 101.357 72.8134 105.42 76.5679 108.393L77.7045 109.296L73.8224 117.922L82.7312 111.916L83.6109 112.21C86.7886 113.273 90.1606 113.635 93.4929 113.272C96.8253 112.908 100.038 111.827 102.91 110.104C105.781 108.381 108.241 106.056 110.121 103.292C112 100.528 113.254 97.3893 113.794 94.0946C114.334 90.7999 114.149 87.4275 113.25 84.2113C112.352 80.995 110.762 78.0118 108.591 75.4683C106.419 72.9249 103.719 70.882 100.676 69.4813C97.6326 68.0806 94.3202 67.3556 90.9679 67.3566Z" fill="#3F3D56"/>
<path d="M90.9674 92.8792C93.0387 92.8792 94.7179 91.2069 94.7179 89.1442C94.7179 87.0814 93.0387 85.4092 90.9674 85.4092C88.896 85.4092 87.2168 87.0814 87.2168 89.1442C87.2168 91.2069 88.896 92.8792 90.9674 92.8792Z" fill="#3F3D56"/>
<path d="M80.3414 92.8792C82.4128 92.8792 84.0919 91.2069 84.0919 89.1442C84.0919 87.0814 82.4128 85.4092 80.3414 85.4092C78.27 85.4092 76.5908 87.0814 76.5908 89.1442C76.5908 91.2069 78.27 92.8792 80.3414 92.8792Z" fill="#3F3D56"/>
<path d="M101.594 92.8792C103.666 92.8792 105.345 91.2069 105.345 89.1442C105.345 87.0814 103.666 85.4092 101.594 85.4092C99.5229 85.4092 97.8438 87.0814 97.8438 89.1442C97.8438 91.2069 99.5229 92.8792 101.594 92.8792Z" fill="#3F3D56"/>
<path d="M185.282 74.361H149.64C149.21 74.361 148.798 74.1911 148.494 73.8885C148.19 73.5859 148.02 73.1756 148.02 72.7477C148.02 72.3198 148.19 71.9094 148.494 71.6068C148.798 71.3043 149.21 71.1343 149.64 71.1343H185.282C185.712 71.1343 186.124 71.3043 186.428 71.6068C186.731 71.9094 186.902 72.3198 186.902 72.7477C186.902 73.1756 186.731 73.5859 186.428 73.8885C186.124 74.1911 185.712 74.361 185.282 74.361Z" fill="#CCCCCC"/>
<path d="M161.993 67.5041H149.64C149.21 67.5041 148.798 67.3341 148.494 67.0316C148.19 66.729 148.02 66.3186 148.02 65.8907C148.02 65.4628 148.19 65.0525 148.494 64.7499C148.798 64.4473 149.21 64.2773 149.64 64.2773H161.993C162.423 64.2773 162.835 64.4473 163.139 64.7499C163.442 65.0525 163.613 65.4628 163.613 65.8907C163.613 66.3186 163.442 66.729 163.139 67.0316C162.835 67.3341 162.423 67.5041 161.993 67.5041Z" fill="#CCCCCC"/>
<path d="M133.496 76.327C137.299 76.327 140.381 73.2571 140.381 69.4702C140.381 65.6832 137.299 62.6133 133.496 62.6133C129.693 62.6133 126.61 65.6832 126.61 69.4702C126.61 73.2571 129.693 76.327 133.496 76.327Z" fill="#F27D28"/>
<path d="M188.855 58.9834H124.659C123.746 58.9847 122.871 59.3463 122.226 59.989C121.58 60.6317 121.217 61.503 121.216 62.4118V76.5289C121.217 77.4378 121.58 78.3091 122.226 78.9518C122.871 79.5945 123.746 79.9561 124.659 79.9574H188.855C189.768 79.9561 190.643 79.5945 191.288 78.9518C191.934 78.3091 192.297 77.4378 192.298 76.5289V62.4118C192.297 61.503 191.934 60.6317 191.288 59.989C190.643 59.3463 189.768 58.9847 188.855 58.9834ZM191.893 76.5289C191.892 77.3309 191.572 78.0998 191.002 78.6669C190.433 79.234 189.661 79.553 188.855 79.554H124.659C123.853 79.553 123.081 79.234 122.512 78.6669C121.942 78.0998 121.622 77.3309 121.621 76.5289V62.4118C121.622 61.6098 121.942 60.8409 122.512 60.2738C123.081 59.7067 123.853 59.3877 124.659 59.3867H188.855C189.661 59.3877 190.433 59.7067 191.002 60.2738C191.572 60.8409 191.892 61.6098 191.893 62.4118V76.5289Z" fill="#3F3D56"/>
<path d="M191.893 64.63C194.466 64.63 196.551 62.5533 196.551 59.9915C196.551 57.4297 194.466 55.353 191.893 55.353C189.321 55.353 187.235 57.4297 187.235 59.9915C187.235 62.5533 189.321 64.63 191.893 64.63Z" fill="#F27D28"/>
<path d="M191.75 62.6001C191.731 62.5814 191.716 62.5591 191.706 62.5347C191.696 62.5102 191.69 62.484 191.69 62.4575V57.3237C191.69 57.2702 191.712 57.2189 191.75 57.1811C191.788 57.1433 191.839 57.1221 191.893 57.1221C191.947 57.1221 191.998 57.1433 192.036 57.1811C192.074 57.2189 192.095 57.2702 192.095 57.3237V62.4575C192.095 62.4974 192.084 62.5363 192.061 62.5695C192.039 62.6027 192.007 62.6285 191.97 62.6438C191.933 62.659 191.893 62.663 191.853 62.6553C191.814 62.6475 191.778 62.6283 191.75 62.6001Z" fill="white"/>
<path d="M189.172 60.0332C189.143 60.005 189.124 59.9691 189.116 59.93C189.108 59.8908 189.112 59.8503 189.128 59.8135C189.143 59.7766 189.169 59.7451 189.202 59.723C189.236 59.7008 189.275 59.689 189.315 59.689H194.47C194.524 59.689 194.575 59.7102 194.613 59.748C194.651 59.7858 194.672 59.8371 194.672 59.8906C194.672 59.9441 194.651 59.9954 194.613 60.0332C194.575 60.071 194.524 60.0923 194.47 60.0923H189.315C189.288 60.0923 189.262 60.0871 189.237 60.077C189.213 60.0669 189.19 60.052 189.172 60.0332Z" fill="white"/>
<path d="M197.469 121.644H187.746C187.746 121.922 177.726 122.148 177.726 122.148C177.568 122.266 177.425 122.401 177.298 122.552C176.918 123.004 176.71 123.575 176.711 124.165V124.568C176.711 125.237 176.978 125.878 177.453 126.351C177.927 126.823 178.571 127.089 179.242 127.089H197.469C198.14 127.089 198.783 126.823 199.258 126.35C199.733 125.878 199.999 125.237 200 124.568V124.165C199.999 123.497 199.732 122.856 199.258 122.383C198.783 121.911 198.14 121.645 197.469 121.644Z" fill="#3F3D56"/>
<path d="M189.772 126.989H187.14V143.93H189.772V126.989Z" fill="#3F3D56"/>
<path d="M197.266 143.838C197.266 144.121 193.276 143.947 188.355 143.947C183.434 143.947 179.444 144.121 179.444 143.838C179.444 143.554 183.434 141.308 188.355 141.308C193.276 141.308 197.266 143.554 197.266 143.838Z" fill="#3F3D56"/>
<path d="M189.3 98.9426C192.432 98.9426 194.971 96.4144 194.971 93.2958C194.971 90.1771 192.432 87.6489 189.3 87.6489C186.169 87.6489 183.63 90.1771 183.63 93.2958C183.63 96.4144 186.169 98.9426 189.3 98.9426Z" fill="#2F2E41"/>
<path d="M175.189 141.61L172.707 141.609L171.525 132.073L175.19 132.073L175.189 141.61Z" fill="#FFB8B8"/>
<path d="M170.933 140.903H175.721V143.905H167.918C167.918 143.109 168.236 142.345 168.801 141.782C169.366 141.219 170.133 140.903 170.933 140.903Z" fill="#2F2E41"/>
<path d="M171.313 140.229L168.944 139.489L170.684 130.038L174.181 131.13L171.313 140.229Z" fill="#FFB8B8"/>
<path d="M167.465 138.287L172.034 139.714L171.131 142.579L163.686 140.252C163.926 139.493 164.458 138.859 165.167 138.49C165.876 138.121 166.702 138.048 167.465 138.287Z" fill="#2F2E41"/>
<path d="M190.819 119.991C190.762 119.51 190.659 119.036 190.511 118.575L190.048 117.994L188.841 116.486L188.788 116.488C188.699 116.492 188.328 116.512 187.755 116.556H187.749C187.395 116.585 186.961 116.621 186.469 116.667C186.34 116.681 186.204 116.694 186.064 116.708V118.813H188.596C188.719 118.813 188.837 118.858 188.93 118.939C189.022 119.02 189.082 119.131 189.098 119.253C189.1 119.275 189.102 119.295 189.102 119.317C189.102 119.451 189.048 119.579 188.953 119.674C188.859 119.768 188.73 119.821 188.596 119.822H173.893C173.706 119.945 173.526 120.08 173.354 120.225C172.836 120.624 172.463 121.181 172.291 121.81C171.432 125.569 169.867 132.579 169.405 134.638C169.372 134.794 169.379 134.955 169.427 135.106C169.475 135.257 169.562 135.394 169.679 135.502C169.765 135.582 169.866 135.644 169.976 135.685L171.803 136.367C171.878 136.394 171.956 136.413 172.036 136.421C172.046 136.421 172.054 136.423 172.064 136.423C172.083 136.425 172.102 136.426 172.121 136.425C172.306 136.424 172.486 136.368 172.638 136.264C172.79 136.16 172.907 136.012 172.974 135.84L174.416 132.073L176.637 126.265L177.516 123.968C178.535 124.206 187.081 126.089 189.942 123.054C190.225 122.755 190.447 122.406 190.598 122.024C190.839 121.375 190.915 120.676 190.819 119.991Z" fill="#2F2E41"/>
<path d="M193.298 120.54C193.254 120.36 193.203 120.175 193.144 119.987L191.474 117.898L191.421 117.9C191.316 117.906 190.816 117.932 190.048 117.995C189.177 118.067 187.96 118.184 186.593 118.368C186.553 118.372 186.51 118.378 186.47 118.384C186.336 118.402 186.2 118.42 186.065 118.44V118.814H188.596C188.719 118.814 188.838 118.858 188.93 118.939C189.023 119.02 189.082 119.132 189.098 119.253C189.1 119.275 189.102 119.296 189.102 119.318C189.102 119.451 189.049 119.58 188.954 119.674C188.859 119.769 188.73 119.822 188.596 119.822H179.649C179.258 119.949 178.881 120.082 178.521 120.225C176.63 120.971 175.214 121.95 174.924 123.222C174.827 123.65 174.72 124.12 174.606 124.62C174.185 126.479 173.673 128.756 173.209 130.825V130.827C173.114 131.255 173.019 131.67 172.927 132.074C172.541 133.808 172.213 135.278 172.038 136.051C172.034 136.073 172.03 136.093 172.026 136.115V136.119C172.006 136.275 172.026 136.434 172.083 136.581L172.085 136.583V136.585C172.141 136.726 172.231 136.85 172.348 136.946C172.427 137.01 172.515 137.061 172.61 137.097L174.436 137.779C174.538 137.817 174.646 137.837 174.754 137.837C174.906 137.838 175.056 137.8 175.19 137.726C175.381 137.623 175.529 137.455 175.607 137.252L179.54 126.975L180.149 125.38C181.168 125.618 189.714 127.5 192.575 124.466C193.141 123.857 193.463 123.063 193.483 122.234C193.503 121.663 193.441 121.093 193.298 120.54Z" fill="#2F2E41"/>
<path d="M193.074 102.748C193.041 102.71 193.007 102.672 192.97 102.635C192.431 102.071 191.765 101.641 191.027 101.382C190.289 101.123 189.499 101.042 188.724 101.145C188.047 101.234 187.377 101.365 186.717 101.538C185.864 101.756 185.084 102.192 184.453 102.803C183.961 103.278 183.574 103.849 183.315 104.481C183.057 105.113 182.933 105.791 182.952 106.473C182.96 106.749 182.962 107.032 182.958 107.318C182.958 107.451 182.956 107.586 182.954 107.722H184.951C185.038 107.721 185.124 107.731 185.208 107.752C185.452 107.81 185.669 107.948 185.824 108.143C185.98 108.339 186.064 108.581 186.065 108.831V118.213C186.2 118.251 186.336 118.289 186.47 118.33C186.512 118.344 186.553 118.356 186.593 118.368C186.64 118.382 186.686 118.396 186.731 118.41C187.142 118.537 187.544 118.672 187.936 118.814H188.596C188.719 118.814 188.838 118.858 188.93 118.939C189.023 119.02 189.082 119.132 189.098 119.253C189.236 119.308 189.37 119.362 189.501 119.417C189.969 119.61 190.413 119.804 190.82 119.991C191.369 120.241 191.857 120.479 192.266 120.687C192.394 120.752 192.536 120.787 192.681 120.788C192.87 120.787 193.055 120.727 193.207 120.614C193.239 120.591 193.269 120.566 193.298 120.54C193.407 120.439 193.489 120.313 193.537 120.173C193.585 120.033 193.599 119.883 193.576 119.737C193.367 118.153 193.306 116.553 193.394 114.958C193.45 113.616 193.572 112.241 193.73 110.912C193.815 110.192 193.91 109.486 194.009 108.807C194.105 108.157 194.206 107.534 194.305 106.945C194.435 106.198 194.392 105.432 194.178 104.704C193.965 103.977 193.587 103.308 193.074 102.748Z" fill="#F27D28"/>
<path d="M184.772 102.913C184.668 102.869 184.561 102.832 184.452 102.802C183.912 102.658 183.338 102.711 182.835 102.953C182.332 103.195 181.932 103.609 181.71 104.119L180.319 107.318L180.145 107.721H184.95C185.037 107.721 185.123 107.731 185.207 107.751L185.369 107.378L185.985 105.963C186.23 105.398 186.239 104.76 186.012 104.188C185.784 103.617 185.338 103.158 184.772 102.913Z" fill="#F27D28"/>
<path d="M189.093 99.5702C191.84 99.5702 194.067 97.3525 194.067 94.6169C194.067 91.8812 191.84 89.6636 189.093 89.6636C186.346 89.6636 184.119 91.8812 184.119 94.6169C184.119 97.3525 186.346 99.5702 189.093 99.5702Z" fill="#FFB8B8"/>
<path d="M184.029 92.1834C186.385 93.6156 189.041 94.4871 191.791 94.7302L190.973 93.7539C191.568 93.9733 192.195 94.0972 192.83 94.1212C193.464 94.1114 194.128 93.8683 194.488 93.3485C194.648 93.09 194.744 92.7968 194.766 92.4938C194.788 92.1907 194.736 91.8868 194.614 91.6081C194.365 91.0521 193.977 90.5688 193.487 90.2044C192.619 89.5204 191.594 89.0609 190.504 88.8669C189.414 88.673 188.293 88.7505 187.241 89.0927C186.519 89.3076 185.872 89.7206 185.375 90.2845C184.904 90.8637 183.996 91.3799 184.237 92.0857L184.029 92.1834Z" fill="#2F2E41"/>
<path d="M189.929 88.1858C188.36 86.6016 186.462 85.3791 184.367 84.6043C183.023 84.1083 181.56 83.8019 180.154 84.0835C178.749 84.3652 177.419 85.3335 177.027 86.7068C176.707 87.8298 177.038 89.0389 177.535 90.0961C178.033 91.1532 178.697 92.1335 179.1 93.23C179.51 94.3489 179.634 95.5522 179.459 96.7307C179.284 97.9091 178.816 99.0254 178.098 99.9783C177.38 100.931 176.435 101.69 175.348 102.187C174.26 102.684 173.066 102.902 171.872 102.822C173.253 103.006 174.526 103.653 175.876 103.997C177.226 104.341 178.819 104.317 179.822 103.354C180.884 102.335 180.905 100.679 180.853 99.2115C180.777 97.0304 180.701 94.8493 180.625 92.6683C180.586 91.5559 180.552 90.408 180.955 89.3698C181.358 88.3316 182.315 87.4225 183.433 87.4319C184.28 87.4391 185.03 87.9501 185.709 88.454C186.388 88.958 187.107 89.4956 187.951 89.5706C188.795 89.6455 189.758 89.0237 189.695 88.1826L189.929 88.1858Z" fill="#2F2E41"/>
<path d="M194.009 108.807L191.17 108.883L190.963 110.87L190.917 111.329L186.469 113.318L186.064 113.499V117.035L186.469 116.92L187.749 116.557H187.755L193.393 114.958L193.458 114.939C193.914 114.808 194.315 114.535 194.602 114.159C194.888 113.782 195.046 113.324 195.05 112.852L195.064 110.507L195.076 108.778L194.009 108.807Z" fill="#FFB8B8"/>
<path d="M194.932 104.878C194.895 104.264 194.613 103.69 194.151 103.282C193.688 102.875 193.081 102.667 192.465 102.705C191.848 102.742 191.272 103.022 190.863 103.483C190.453 103.944 190.245 104.548 190.283 105.162L190.592 110.196C190.601 110.328 190.638 110.457 190.702 110.574C190.767 110.69 190.855 110.791 190.963 110.869C191.134 110.996 191.345 111.059 191.558 111.045L193.729 110.912L194.388 110.871C194.508 110.865 194.625 110.835 194.733 110.783C194.841 110.731 194.937 110.657 195.015 110.567C195.033 110.548 195.049 110.527 195.064 110.506C195.193 110.335 195.256 110.123 195.242 109.909L194.932 104.878Z" fill="#F27D28"/>
<path d="M186.731 118.41H186.47V118.384C186.336 118.402 186.2 118.42 186.065 118.44V118.813H187.936C187.543 118.672 187.141 118.538 186.731 118.41ZM186.731 118.41H186.47V118.384C186.336 118.402 186.2 118.42 186.065 118.44V118.813H187.936C187.543 118.672 187.141 118.538 186.731 118.41ZM188.596 118.41H186.47V108.83C186.469 108.502 186.361 108.184 186.163 107.922C185.965 107.66 185.686 107.469 185.37 107.378C185.234 107.338 185.093 107.317 184.951 107.318H166.927C166.524 107.318 166.138 107.478 165.854 107.761C165.569 108.045 165.409 108.429 165.408 108.83V118.712C165.408 119.114 165.568 119.498 165.853 119.782C166.138 120.065 166.524 120.225 166.927 120.225H188.596C188.82 120.225 189.037 120.142 189.204 119.993C189.371 119.844 189.477 119.638 189.501 119.416C189.505 119.383 189.507 119.35 189.507 119.317C189.507 119.077 189.411 118.846 189.24 118.676C189.069 118.506 188.838 118.41 188.596 118.41ZM189.102 119.317C189.102 119.451 189.049 119.579 188.954 119.674C188.859 119.768 188.73 119.822 188.596 119.822H166.927C166.632 119.821 166.349 119.705 166.14 119.497C165.931 119.289 165.813 119.007 165.813 118.712V108.83C165.813 108.536 165.931 108.254 166.14 108.046C166.349 107.838 166.632 107.721 166.927 107.721H184.951C185.037 107.721 185.124 107.731 185.208 107.751C185.452 107.809 185.669 107.947 185.824 108.143C185.979 108.339 186.064 108.581 186.065 108.83V118.813H188.596C188.719 118.813 188.838 118.858 188.93 118.939C189.023 119.02 189.082 119.131 189.098 119.253C189.1 119.275 189.102 119.295 189.102 119.317ZM186.731 118.41H186.47V118.384C186.336 118.402 186.2 118.42 186.065 118.44V118.813H187.936C187.543 118.672 187.141 118.538 186.731 118.41Z" fill="#3F3D56"/>
<path d="M175.938 114.982C176.609 114.982 177.153 114.44 177.153 113.772C177.153 113.103 176.609 112.562 175.938 112.562C175.267 112.562 174.723 113.103 174.723 113.772C174.723 114.44 175.267 114.982 175.938 114.982Z" fill="#F27D28"/>
<path d="M67.4077 14.3929C67.4032 14.485 67.406 14.5774 67.4161 14.6691L61.0567 19.9839L59.1603 19.3002L57.75 22.0154L61.8962 23.9808L68.8484 16.2116C69.1995 16.275 69.5616 16.2305 69.8867 16.084C70.2117 15.9375 70.4842 15.6959 70.668 15.3913C70.8518 15.0868 70.9382 14.7338 70.9156 14.3792C70.893 14.0246 70.7625 13.6852 70.5415 13.4063C70.3206 13.1273 70.0196 12.922 69.6785 12.8175C69.3375 12.7131 68.9726 12.7145 68.6324 12.8216C68.2922 12.9287 67.9929 13.1364 67.7741 13.4171C67.5553 13.6978 67.4275 14.0381 67.4077 14.3929L67.4077 14.3929Z" fill="#FFB8B8"/>
<path d="M58.8788 23.318L52.7378 21.1106C52.174 20.908 51.7142 20.4906 51.4594 19.9503C51.2047 19.41 51.1759 18.7911 51.3794 18.2296C51.5828 17.6682 52.002 17.2103 52.5445 16.9566C53.087 16.7029 53.7086 16.6742 54.2723 16.8768L60.4133 19.0842C60.5064 19.1176 60.5919 19.169 60.665 19.2354C60.7381 19.3017 60.7974 19.3818 60.8394 19.4709C60.8815 19.5601 60.9055 19.6566 60.91 19.755C60.9146 19.8535 60.8997 19.9518 60.8661 20.0444L59.8431 22.8671C59.775 23.054 59.6353 23.2065 59.4545 23.291C59.2738 23.3756 59.0667 23.3853 58.8788 23.318V23.318Z" fill="#CCCCCC"/>
<path d="M54.3813 44.8221L56.4335 44.8219L57.4099 36.9385L54.3809 36.9387L54.3813 44.8221Z" fill="#FFB8B8"/>
<path d="M60.3916 46.7197L53.9414 46.72L53.9413 44.2382L57.8994 44.2381C58.5603 44.238 59.1942 44.4995 59.6616 44.9649C60.129 45.4303 60.3916 46.0615 60.3916 46.7197L60.3916 46.7197Z" fill="#2F2E41"/>
<path d="M49.3086 42.1821L50.9874 43.3576L56.3395 37.4682L53.8617 35.7334L49.3086 42.1821Z" fill="#FFB8B8"/>
<path d="M52.9267 46.7739L47.6502 43.0794L49.0836 41.0492L52.3215 43.3163C52.8622 43.6949 53.2297 44.2718 53.3432 44.9203C53.4567 45.5687 53.3069 46.2355 52.9268 46.7739L52.9267 46.7739Z" fill="#2F2E41"/>
<path d="M58.8714 30.6214C58.8714 30.6214 63.9931 30.0196 63.0739 33.3294C62.1546 36.6391 51.9111 39.4975 51.9111 39.4975L58.8714 30.6214Z" fill="#FFB8B8"/>
<path d="M55.347 13.733C57.6178 13.733 59.4586 11.8999 59.4586 9.63849C59.4586 7.37714 57.6178 5.54395 55.347 5.54395C53.0762 5.54395 51.2354 7.37714 51.2354 9.63849C51.2354 11.8999 53.0762 13.733 55.347 13.733Z" fill="#FFB8B8"/>
<path d="M42.2342 38.8195C39.8946 36.1066 39.0759 31.943 42.807 28.48C43.7284 27.6458 44.7718 26.9557 45.9013 26.4336L48.9084 18.059C49.2207 17.1845 49.7934 16.4257 50.55 15.8837C51.3067 15.3417 52.2113 15.0423 53.1432 15.0255C54.048 14.9867 54.9427 15.2277 55.7044 15.7155C56.4661 16.2033 57.0575 16.9141 57.3973 17.75C57.7645 18.6005 57.8065 19.5554 57.5154 20.4346C56.6203 23.2107 55.4447 25.8892 54.0068 28.429L54.1623 29.6678L61.763 30.3405L61.6921 30.4553C61.6551 30.5152 57.9352 36.1594 53.1764 39.9058C51.5493 41.1867 49.8667 41.7176 48.2786 41.7174C45.8706 41.7173 43.6803 40.4964 42.2342 38.8195Z" fill="#CCCCCC"/>
<path d="M41.5174 10.9233C42.2448 10.0601 42.5569 8.93103 42.8079 7.83223C43.205 6.09365 43.5123 4.2959 44.3946 2.74441C45.2768 1.19294 46.8982 -0.0926119 48.686 0.00524171C50.4635 0.102537 51.9006 1.52669 52.6634 3.14709C52.8481 3.07564 53.0459 3.04364 53.2438 3.05314C53.4417 3.06264 53.6355 3.11345 53.8124 3.20226C54.3622 3.50207 54.5678 4.35426 54.1101 4.78087C54.5914 4.55264 55.1156 4.42784 55.6485 4.41461C56.1814 4.40138 56.7112 4.50001 57.2033 4.70408C57.8362 4.97238 58.3824 5.4093 58.782 5.9668C59.1816 6.52429 59.4191 7.18074 59.4682 7.86393C59.4874 8.14122 59.4492 8.41948 59.3559 8.68146C59.2627 8.94344 59.1164 9.18357 58.9262 9.38695C58.1373 10.1957 57.0215 9.91673 56.0295 9.7107C55.0924 9.51611 53.9511 9.46358 53.4232 10.3527C53.2151 10.7232 53.1569 11.1588 53.2603 11.5705C53.4626 12.4581 54.1225 13.0764 54.7627 13.668L54.8674 13.8617C52.607 14.3007 50.1387 12.7634 49.5457 10.5473C48.9528 8.3313 50.3257 5.77476 52.5057 5.0355C52.3606 5.03999 52.217 5.00583 52.0896 4.93654C51.9622 4.86725 51.8557 4.76534 51.7811 4.64134C51.7065 4.51734 51.6664 4.37575 51.6652 4.2312C51.6639 4.08665 51.7014 3.94439 51.7738 3.8191C51.1704 3.48246 50.4874 3.31278 49.7959 3.32768C48.6699 3.40125 47.6954 4.19949 47.1094 5.15987C46.5233 6.12025 46.258 7.23497 45.9891 8.32642C45.7204 9.41787 45.4294 10.5302 44.8028 11.4648C44.3688 12.1122 43.7889 12.6496 43.1093 13.0341C42.4297 13.4186 41.6693 13.6396 40.8887 13.6795C40.1081 13.7193 39.329 13.577 38.6134 13.2637C37.8979 12.9505 37.2658 12.475 36.7676 11.8753C37.5549 12.2555 38.4457 12.3683 39.3036 12.1963C40.1614 12.0244 40.9391 11.5772 41.5174 10.9233Z" fill="#2F2E41"/>
<path d="M71.7158 22.0817C75.0166 22.0817 77.6924 19.417 77.6924 16.13C77.6924 12.8429 75.0166 10.1782 71.7158 10.1782C68.415 10.1782 65.7393 12.8429 65.7393 16.13C65.7393 19.417 68.415 22.0817 71.7158 22.0817Z" fill="#F27D28"/>
<path d="M71.5321 19.4772C71.508 19.4532 71.4888 19.4247 71.4758 19.3933C71.4627 19.3619 71.456 19.3282 71.4561 19.2942V12.707C71.4561 12.6384 71.4834 12.5726 71.5322 12.524C71.5809 12.4755 71.647 12.4482 71.7159 12.4482C71.7848 12.4482 71.8509 12.4755 71.8996 12.524C71.9483 12.5726 71.9757 12.6384 71.9757 12.707V19.2942C71.9757 19.3454 71.9605 19.3954 71.9319 19.438C71.9034 19.4805 71.8628 19.5137 71.8153 19.5333C71.7678 19.5529 71.7156 19.558 71.6652 19.548C71.6148 19.538 71.5685 19.5134 71.5321 19.4772H71.5321Z" fill="white"/>
<path d="M68.2245 16.1839C68.1882 16.1477 68.1634 16.1016 68.1534 16.0514C68.1434 16.0012 68.1486 15.9492 68.1682 15.9019C68.1879 15.8546 68.2212 15.8142 68.2639 15.7858C68.3066 15.7574 68.3569 15.7422 68.4083 15.7422H75.023C75.0919 15.7422 75.158 15.7695 75.2067 15.818C75.2554 15.8665 75.2828 15.9323 75.2828 16.0009C75.2828 16.0696 75.2554 16.1354 75.2067 16.1839C75.158 16.2324 75.0919 16.2597 75.023 16.2597H68.4083C68.3741 16.2597 68.3403 16.2531 68.3088 16.2401C68.2773 16.2271 68.2486 16.208 68.2245 16.1839Z" fill="white"/>
<path d="M67.6135 20.1112C67.5701 20.1927 67.5332 20.2775 67.5032 20.3647L59.4784 22.4839L58.0537 21.0623L55.6182 22.9231L58.5323 26.4571L68.1413 22.3673C68.432 22.5733 68.7788 22.6863 69.1356 22.6912C69.4923 22.6962 69.8421 22.5928 70.1385 22.395C70.4348 22.1971 70.6637 21.9141 70.7945 21.5836C70.9254 21.253 70.9522 20.8906 70.8712 20.5446C70.7903 20.1986 70.6054 19.8853 70.3413 19.6464C70.0772 19.4075 69.7463 19.2544 69.3927 19.2073C69.0391 19.1603 68.6794 19.2215 68.3616 19.383C68.0438 19.5444 67.7828 19.7984 67.6135 20.1112L67.6135 20.1112Z" fill="#FFB8B8"/>
<path d="M56.0839 24.5797L51.4674 19.9824C51.2569 19.7735 51.0899 19.5254 50.9759 19.2522C50.8618 18.979 50.803 18.686 50.8027 18.3902C50.8025 18.0943 50.8608 17.8013 50.9744 17.5279C51.088 17.2545 51.2546 17.0061 51.4647 16.7969C51.6747 16.5877 51.9242 16.4217 52.1987 16.3086C52.4733 16.1955 52.7675 16.1374 53.0646 16.1377C53.3617 16.1379 53.6559 16.1965 53.9302 16.3101C54.2045 16.4237 54.4537 16.59 54.6634 16.7996L59.28 21.397C59.3499 21.4666 59.4054 21.5493 59.4433 21.6403C59.4811 21.7313 59.5006 21.8289 59.5006 21.9274C59.5006 22.0259 59.4811 22.1234 59.4433 22.2144C59.4054 22.3054 59.3499 22.3881 59.28 22.4578L57.1493 24.5797C57.0079 24.7202 56.8163 24.799 56.6166 24.799C56.4169 24.799 56.2253 24.7202 56.0839 24.5797V24.5797Z" fill="#CCCCCC"/>
</svg>
