<svg width="132" height="153" viewBox="0 0 132 153" fill="none" xmlns="http://www.w3.org/2000/svg">
<path d="M9.1248 96.4088H0.355469V87.6395C0.355469 86.0752 1.63532 84.7954 3.19958 84.7954H11.7319V93.8017C11.7319 95.2393 10.5624 96.4088 9.1248 96.4088Z" fill="#3F3D56"/>
<path d="M129.052 11.797H120.282V3.0277C120.282 1.46343 121.562 0.183594 123.126 0.183594H131.659V9.18993C131.659 10.6275 130.489 11.797 129.052 11.797Z" fill="#3F3D56"/>
<path d="M67.6046 149.261L64.4459 149.261L62.9434 137.077L67.6052 137.077L67.6046 149.261Z" fill="#A0616A"/>
<path d="M67.7161 152.556L58.0029 152.556V152.433C58.0031 150.345 59.6957 148.652 61.7836 148.652H61.7838L63.5581 147.306L66.8684 148.652L67.7163 148.652L67.7161 152.556V152.556Z" fill="#2F2E41"/>
<path d="M65.6033 86.3809L63.5188 93.6183C63.5188 93.6183 59.0156 117.304 60.2006 120.622C61.3857 123.94 62.2591 144.812 62.2591 144.812H68.425C68.425 144.812 69.2555 139.517 69.2312 138.72C69.207 137.924 70.629 125.125 68.733 123.229L77.0283 102.372L90.0638 91.4698L84.9522 85.125L65.6033 86.3809L65.6033 86.3809Z" fill="#2F2E41"/>
<path opacity="0.5" d="M95.7515 98.1216V94.3294L91.9593 89.1152C90.3951 89.1152 89.1152 90.3951 89.1152 91.9593V104.758C89.1152 106.322 90.3951 107.602 91.9593 107.602H104.758C106.322 107.602 107.602 106.322 107.602 104.758L102.388 101.203H98.8326C97.1336 101.203 95.7515 99.8204 95.7515 98.1216Z" fill="#F27D28"/>
<path opacity="0.5" d="M114.054 66.7182H36.6846C34.165 66.7182 32.1152 64.6684 32.1152 62.1487V35.2624C32.1152 32.7427 34.165 30.6929 36.6846 30.6929H114.054C116.574 30.6929 118.623 32.7427 118.623 35.2624V62.1487C118.623 64.6684 116.574 66.7182 114.054 66.7182Z" fill="#F27D28"/>
<path d="M80.7677 61.6222H30.2848C27.6998 61.6222 25.5967 59.5191 25.5967 56.9341V30.0479C25.5967 27.4629 27.6997 25.3599 30.2847 25.3599H107.654C110.239 25.3599 112.342 27.463 112.342 30.048C112.342 47.4581 98.1778 61.6222 80.7677 61.6222ZM30.2847 25.8339C27.9611 25.8339 26.0707 27.7243 26.0707 30.0479V56.9341C26.0707 59.2578 27.9611 61.1482 30.2848 61.1482H80.7677C97.9165 61.1482 111.868 47.1967 111.868 30.048C111.868 27.7243 109.978 25.8339 107.654 25.8339H30.2847Z" fill="#F27D28"/>
<path d="M87.1716 89.3628L86.6699 82.2613L90.6867 81.4087L90.95 88.9357C91.1082 89.1026 91.2452 89.295 91.3533 89.5115C91.9409 90.6891 91.4627 92.1201 90.2851 92.7077C89.1075 93.2954 87.6765 92.8171 87.0889 91.6396C86.7141 90.8886 86.7745 90.0354 87.1716 89.3628Z" fill="#A0616A"/>
<path d="M80.7954 43.8281L79.25 44.9799L83.048 66.6375L82.4928 67.9634L83.2335 68.6599L83.4605 70.3255L86.4511 85.7971H91.0116C90.9447 85.2596 92.2632 84.7087 92.1967 84.138C92.1207 83.4854 91.5865 82.4983 91.5105 81.809C91.487 81.5955 91.4634 81.3804 91.4399 81.1639C91.4053 80.846 91.3707 80.5249 91.3361 80.201C91.3092 79.9501 91.2823 79.6975 91.2554 79.4434C90.6723 73.9409 90.4326 67.749 90.0958 62.4023C89.6665 55.586 89.0793 50.1434 87.4218 49.2541L80.7954 43.8281L80.7954 43.8281Z" fill="#3F3D56"/>
<path d="M92.3227 148.892C92.8124 148.923 93.083 148.314 92.7125 147.96L92.6757 147.813C92.6805 147.801 92.6854 147.79 92.6903 147.778C93.1855 146.597 94.8637 146.605 95.3546 147.788C95.7904 148.837 96.3452 149.889 96.4818 150.998C96.5431 151.488 96.5155 151.987 96.4068 152.468C97.4279 150.238 97.9652 147.802 97.9652 145.353C97.9652 144.737 97.9315 144.122 97.8626 143.508C97.806 143.006 97.7279 142.507 97.6269 142.012C97.0804 139.34 95.897 136.794 94.1902 134.668C93.3697 134.219 92.6854 133.518 92.2721 132.678C92.1236 132.375 92.0073 132.048 91.9521 131.716C92.0455 131.729 92.3042 130.306 92.2338 130.219C92.3639 130.022 92.5969 129.924 92.739 129.731C93.4458 128.772 94.4197 128.94 94.928 130.242C96.0141 130.79 96.0246 131.699 95.3582 132.574C94.9342 133.13 94.876 133.882 94.504 134.478C94.5423 134.527 94.5821 134.574 94.6204 134.623C95.3222 135.523 95.9291 136.491 96.4408 137.507C96.2962 136.378 96.5097 135.017 96.8737 134.14C97.288 133.14 98.0647 132.298 98.7485 131.434C99.57 130.396 101.255 130.849 101.399 132.165C101.401 132.178 101.402 132.19 101.403 132.203C101.302 132.26 101.202 132.321 101.105 132.386C100.551 132.752 100.742 133.612 101.399 133.713L101.414 133.715C101.377 134.081 101.315 134.444 101.223 134.801C102.1 138.194 100.206 139.43 97.5013 139.485C97.4416 139.516 97.3835 139.546 97.3238 139.575C97.5978 140.347 97.8167 141.138 97.9789 141.941C98.1244 142.649 98.2254 143.366 98.282 144.085C98.3525 144.993 98.3463 145.905 98.2698 146.812L98.2744 146.779C98.4688 145.781 99.0107 144.849 99.7976 144.203C100.97 143.24 102.626 142.886 103.89 142.112C104.499 141.739 105.279 142.221 105.173 142.926L105.168 142.96C104.979 143.037 104.796 143.125 104.618 143.225C104.516 143.282 104.417 143.343 104.32 143.407C103.765 143.774 103.957 144.634 104.614 144.735L104.629 144.737C104.639 144.739 104.649 144.74 104.659 144.742C104.336 145.509 103.886 146.221 103.323 146.835C102.774 149.796 100.418 150.077 97.8978 149.215H97.8963C97.6207 150.415 97.2181 151.588 96.7007 152.705H92.4298C92.4145 152.658 92.4007 152.609 92.3869 152.561C92.7818 152.586 93.1799 152.563 93.5687 152.491C93.2518 152.102 92.9349 151.71 92.6181 151.321C92.6104 151.314 92.6043 151.306 92.5982 151.298C92.4374 151.099 92.2752 150.902 92.1144 150.703L92.1143 150.703C92.1043 150.092 92.1775 149.483 92.3226 148.892L92.3227 148.892Z" fill="#F2F2F2"/>
<path d="M44.5537 152.718C44.5537 152.875 44.6793 153 44.8358 153H104.868C105.024 153 105.15 152.875 105.15 152.718C105.15 152.562 105.024 152.436 104.868 152.436H44.8358C44.6793 152.436 44.5537 152.562 44.5537 152.718H44.5537Z" fill="#CCCCCC"/>
<path d="M5.37773 0C2.40769 0 0 2.40769 0 5.37773V96.4626H0.474018V37.3716C0.474018 16.9935 16.9935 0.474018 37.3716 0.474018L131.626 0.387825L131.54 0H5.37773Z" fill="#3F3D56"/>
<path d="M44.7947 60.6745C44.7947 60.9921 44.7852 61.3097 44.7686 61.6225H30.285C27.8272 61.6225 25.834 59.6293 25.834 57.1715V43.7141C26.4573 43.6454 27.0901 43.6099 27.7301 43.6099C37.1535 43.6099 44.7947 51.251 44.7947 60.6745H44.7947Z" fill="#F27D28"/>
<path d="M98.4896 43.3716H52.1855C51.3963 43.3716 50.7549 44.013 50.7549 44.8022C50.7549 45.5913 51.3963 46.2327 52.1855 46.2327H98.4896C99.2788 46.2327 99.9202 45.5913 99.9202 44.8022C99.9202 44.013 99.2787 43.3716 98.4896 43.3716Z" fill="#F27D28"/>
<path d="M66.5422 35.3506H52.1855C51.3963 35.3506 50.7549 35.992 50.7549 36.7812C50.7549 37.5703 51.3963 38.2118 52.1855 38.2118H66.5422C67.3313 38.2118 67.9728 37.5703 67.9728 36.7812C67.9728 35.992 67.3313 35.3506 66.5422 35.3506Z" fill="#F27D28"/>
<path d="M80.6397 149.261L77.4811 149.261L75.9785 137.077L80.6403 137.077L80.6397 149.261Z" fill="#A0616A"/>
<path d="M80.7513 152.556L71.0381 152.556V152.433C71.0382 150.345 72.7308 148.652 74.8187 148.652H74.819L76.5932 147.306L79.9035 148.652L80.7515 148.652L80.7513 152.556V152.556Z" fill="#2F2E41"/>
<path d="M74.0654 89.2339L75.7244 103.691L72.0508 118.741L75.2504 144.931L81.1756 145.405C81.1756 145.405 84.0197 126.207 81.4126 119.571L88.0489 93.5L83.0717 90.6559L74.0654 89.2339Z" fill="#2F2E41"/>
<path d="M80.2472 40.3828C79.2016 39.2666 79.5597 38.2496 77.9431 37.9647C76.8472 37.7715 75.5282 37.9652 74.4059 37.9642C71.5855 37.9616 71.1615 39.5211 69.5378 41.593C65.3554 46.9298 69.2465 51.2124 68.2586 57.593C67.3408 63.5215 69.8007 66.7501 68.7112 72.6946C68.1926 75.5243 67.1873 79.5087 65.4283 82.7629C64.457 84.5598 63.9912 86.6502 64.2294 88.6412C64.4403 90.4033 87.1973 90.6087 87.827 90.1752C88.5685 89.6646 88.3177 88.5701 88.3901 87.8076C88.5863 85.7417 88.7859 84.2945 88.2898 82.1846C87.8237 80.2019 87.8324 77.8981 87.8259 75.8489C87.8196 73.8732 85.0369 77.1348 85.1985 75.1624C85.4047 72.6467 85.8135 70.1856 86.2638 67.6928C86.6124 65.7634 86.749 63.7808 87.2611 61.8916C87.851 59.7155 88.5543 57.8012 88.578 55.5188C88.5964 53.7423 89.0251 51.2588 88.3188 49.6312C87.2783 47.2334 85.18 45.0743 83.4099 43.1538C82.5297 42.1989 81.6558 41.5774 80.6503 40.7859" fill="#3F3D56"/>
<path d="M44.5219 51.3102L50.9294 54.4129L49.6677 58.3205L43.01 54.7991C42.7864 54.8532 42.5514 54.8761 42.3098 54.8619C40.996 54.7848 39.9935 53.6573 40.0706 52.3435C40.1477 51.0297 41.2752 50.0272 42.589 50.1043C43.4268 50.1534 44.1366 50.6307 44.5219 51.3102L44.5219 51.3102Z" fill="#A0616A"/>
<path d="M64.1766 69.02C63.5629 68.6949 54.2139 62.7328 49.2983 59.9633C49.2062 59.9114 48.5717 60.2514 48.4831 60.2015C48.348 60.1253 48.4765 59.5604 48.3503 59.4893C48.0766 59.3351 47.5653 59.6843 47.3385 59.5565C46.5172 59.0937 46.6912 57.1192 46.6912 57.1192L48.3503 53.0901L51.0626 53.0035L51.6684 54.0381L52.9544 53.8831L53.8015 54.9861L63.5644 58.8167C63.9438 53.7262 65.9795 49.5267 68.1847 45.4185L69.076 45.5869C71.3239 46.0115 72.8232 48.1509 72.4554 50.4088L69.8809 66.2117C69.6317 67.682 68.5914 68.8675 67.166 69.3057C66.1359 69.6224 65.0672 69.4916 64.1766 69.02Z" fill="#3F3D56"/>
<path d="M73.8689 36.4667C77.8749 36.4667 81.1225 33.2192 81.1225 29.2131C81.1225 25.207 77.8749 21.9595 73.8689 21.9595C69.8628 21.9595 66.6152 25.207 66.6152 29.2131C66.6152 33.2192 69.8628 36.4667 73.8689 36.4667Z" fill="#A0616A"/>
<path d="M81.9197 29.4336C81.6662 29.3317 81.4125 29.2464 81.1922 29.1919C82.4369 30.7589 80.3356 32.1341 80.0095 33.7378C80.0367 35.0109 79.3406 35.5885 78.1228 35.9371L78.1513 35.8376C68.2465 38.3748 78.6948 29.9292 70.9509 29.6965C69.7706 29.7654 71.3468 26.0544 70.1333 26.2411C67.0522 26.7151 66.9085 26.3894 66.5783 28.6115C65.9784 28.8079 65.1561 27.9002 65.2533 26.9521C65.0338 26.5532 64.4601 26.8086 64.2294 26.2031C63.9853 25.741 63.5208 22.7192 64.5801 24.1317C64.6502 23.1674 64.3774 21.1959 65.5803 22.8803C65.4238 22.1141 66.0889 22.4459 66.3672 22.9017C66.5639 22.4537 66.7606 22.0081 66.955 21.5602C66.9004 21.7616 66.936 21.9821 67.0356 22.1812C67.5947 20.9935 68.4482 20.8859 69.7801 20.5505C69.7646 20.9144 69.773 21.3401 69.8228 21.6692C71.3693 19.1069 75.1147 19.8227 76.6082 22.0865C77.5546 22.3026 77.9546 21.975 78.9026 22.212C81.4499 22.8488 82.6144 26.7767 81.9197 29.4336V29.4336Z" fill="#2F2E41"/>
<path d="M101.203 97.8849H109.972V89.1156C109.972 87.5513 108.692 86.2715 107.128 86.2715H98.5957V95.2778C98.5957 96.7154 99.7652 97.8849 101.203 97.8849Z" fill="#F27D28"/>
<path d="M30.268 15.134C31.3749 15.134 32.2723 14.2167 32.2723 13.0851C32.2723 11.9535 31.3749 11.0361 30.268 11.0361C29.161 11.0361 28.2637 11.9535 28.2637 13.0851C28.2637 14.2167 29.161 15.134 30.268 15.134Z" fill="#3F3D56"/>
<path d="M37.1918 15.134C38.2987 15.134 39.1961 14.2167 39.1961 13.0851C39.1961 11.9535 38.2987 11.0361 37.1918 11.0361C36.0849 11.0361 35.1875 11.9535 35.1875 13.0851C35.1875 14.2167 36.0849 15.134 37.1918 15.134Z" fill="#3F3D56"/>
<path d="M44.1156 15.134C45.2226 15.134 46.1199 14.2167 46.1199 13.0851C46.1199 11.9535 45.2226 11.0361 44.1156 11.0361C43.0087 11.0361 42.1113 11.9535 42.1113 13.0851C42.1113 14.2167 43.0087 15.134 44.1156 15.134Z" fill="#3F3D56"/>
<path d="M93.2627 19.9731C93.0667 19.9731 92.9072 20.1326 92.9072 20.3287V22.6987C92.9072 22.8948 93.0667 23.0543 93.2627 23.0543H95.6328C95.8289 23.0543 95.9883 22.8948 95.9883 22.6987V20.3287C95.9883 20.1326 95.8289 19.9731 95.6328 19.9731H93.2627Z" fill="#F27D28"/>
<path d="M98.7139 19.9731C98.5179 19.9731 98.3584 20.1326 98.3584 20.3287V22.6987C98.3584 22.8948 98.5179 23.0543 98.7139 23.0543H101.084C101.28 23.0543 101.44 22.8948 101.44 22.6987V20.3287C101.44 20.1326 101.28 19.9731 101.084 19.9731H98.7139Z" fill="#F27D28"/>
<path d="M104.165 19.9731C103.969 19.9731 103.81 20.1326 103.81 20.3287V22.6987C103.81 22.8948 103.969 23.0543 104.165 23.0543H106.535C106.731 23.0543 106.891 22.8948 106.891 22.6987V20.3287C106.891 20.1326 106.731 19.9731 106.535 19.9731H104.165Z" fill="#F27D28"/>
</svg>
